<?xml version="1.0" encoding="UTF-8" standalone="no"?>
<svg
   xmlns:dc="http://purl.org/dc/elements/1.1/"
   xmlns:cc="http://creativecommons.org/ns#"
   xmlns:rdf="http://www.w3.org/1999/02/22-rdf-syntax-ns#"
   xmlns:svg="http://www.w3.org/2000/svg"
   xmlns="http://www.w3.org/2000/svg"
   xmlns:sodipodi="http://sodipodi.sourceforge.net/DTD/sodipodi-0.dtd"
   xmlns:inkscape="http://www.inkscape.org/namespaces/inkscape"
   width="1080"
   height="228.68359"
   viewBox="0 0 285.74999 60.50587"
   version="1.1"
   id="svg8"
   inkscape:version="1.0.1 (3bc2e813f5, 2020-09-07)"
   sodipodi:docname="cerro.svg">
  <defs
     id="defs2">
    <inkscape:path-effect
       effect="powerstroke"
       id="path-effect66"
       is_visible="true"
       lpeversion="1"
       offset_points="0,0.1322915"
       sort_points="true"
       interpolator_type="CubicBezierJohan"
       interpolator_beta="0.2"
       start_linecap_type="zerowidth"
       linejoin_type="extrp_arc"
       miter_limit="4"
       scale_width="1"
       end_linecap_type="zerowidth" />
    <inkscape:path-effect
       effect="spiro"
       id="path-effect9"
       is_visible="true"
       lpeversion="1" />
  </defs>
  <sodipodi:namedview
     id="base"
     pagecolor="#ffffff"
     bordercolor="#000000"
     borderopacity="1"
     inkscape:pageopacity="0"
     inkscape:pageshadow="2"
     inkscape:zoom="1"
     inkscape:cx="507.31985"
     inkscape:cy="136.83661"
     inkscape:document-units="mm"
     inkscape:current-layer="layer2"
     inkscape:document-rotation="0"
     showgrid="false"
     inkscape:pagecheckerboard="false"
     inkscape:snap-page="true"
     borderlayer="true"
     inkscape:showpageshadow="false"
     showborder="true"
     units="px"
     inkscape:window-width="1366"
     inkscape:window-height="708"
     inkscape:window-x="0"
     inkscape:window-y="28"
     inkscape:window-maximized="1"
     fit-margin-top="0"
     fit-margin-left="0"
     fit-margin-right="0"
     fit-margin-bottom="0" />
  <metadata
     id="metadata5">
    <rdf:RDF>
      <cc:Work
         rdf:about="">
        <dc:format>image/svg+xml</dc:format>
        <dc:type
           rdf:resource="http://purl.org/dc/dcmitype/StillImage" />
        <dc:title></dc:title>
      </cc:Work>
    </rdf:RDF>
  </metadata>
  <g
     inkscape:groupmode="layer"
     id="layer2"
     inkscape:label="Montañas 1"
     style="display:inline"
     transform="translate(0,-129.99413)">
    <path
       id="path908"
       style="fill:#e5e5e5;fill-opacity:1;stroke:none;stroke-width:0.264582px;stroke-linecap:butt;stroke-linejoin:miter;stroke-opacity:1"
       d="M 0,168.68154 V 190.5 h 285.75 v -39.21337 c -2.70672,-2.25366 -5.51807,-4.46834 -8.17161,-6.75607 -0.99718,-0.85974 -7.98814,-5.80052 -7.98814,-7.06802 0,-3.17506 -9.24932,-7.60328 -11.5874,-4.73154 -1.71841,2.11064 -16.3939,11.89602 -17.32556,10.51177 -0.57451,-0.85365 -3.61499,-7.14204 -5.03586,-6.53596 -7.39422,3.15403 -9.37543,15.76091 -14.86886,20.81095 -2.97319,2.73321 -3.49882,0.20823 -4.8457,0.8068 -6.58654,2.92711 -7.5598,13.20356 -11.21172,2.3246 -0.48739,-1.45191 -3.11853,6.9988 -6.55154,8.11353 -3.36486,1.0926 -6.80772,-5.30438 -7.42177,-7.15511 -0.48394,-1.45858 -9.98257,-22.5451 -11.22464,-23.14267 -2.17929,-1.04849 -12.79705,18.88381 -18.57767,18.88381 -7.78516,0 -7.92789,-8.55044 -13.46275,-10.85658 -1.61433,-0.67262 0.068,2.33076 -1.31051,1.7775 -5.03705,-2.02168 -9.8533,-9.26692 -13.41727,-12.25206 -1.34153,-1.12364 -2.73334,3.97309 -5.93142,1.25217 -2.60704,-2.21807 -4.6772,-4.68915 -7.47086,-6.8293 -2.77138,-2.12307 -6.30298,3.94623 -6.30298,5.26083 0,1.27866 -17.271089,24.70323 -19.205542,26.78199 -0.877652,0.94311 -2.657263,2.28173 -4.370276,1.81193 -4.563655,-1.25161 -6.410846,-5.85193 -10.282058,-7.57276 -1.868596,-0.83062 -9.162182,-2.69813 -9.29504,-2.77313 -2.496243,-1.40917 -4.533463,-3.31664 -7.170623,-4.62386 -5.880034,-2.91471 -2.095953,4.1522 -7.478096,0.60925 -1.888112,-1.2429 -11.866417,-12.06044 -12.18737,-12.11706 -1.260594,-0.22235 -7.946906,8.06536 -9.20564,9.0296 -3.581154,2.74334 -4.802179,6.96116 -8.710578,9.70576 -1.035116,0.7269 -2.696939,1.56185 -4.03593,0.89667 -0.23902,-0.11874 0.179482,-2.12219 0,-2.08312 -2.720424,0.59245 -4.734246,5.32855 -6.397025,6.92036 -3.243296,3.10487 -1.725066,-2.56491 -4.027144,-1.95643 C 8.0613937,161.0222 4.8687735,169.03901 0,168.68154 Z" />
  </g>
  <g
     inkscape:groupmode="layer"
     id="layer1"
     inkscape:label="Montañas"
     style="display:inline"
     transform="translate(0,-129.99413)" />
</svg>
