<?xml version="1.0" encoding="UTF-8" standalone="no"?>
<svg
   xmlns:dc="http://purl.org/dc/elements/1.1/"
   xmlns:cc="http://creativecommons.org/ns#"
   xmlns:rdf="http://www.w3.org/1999/02/22-rdf-syntax-ns#"
   xmlns:svg="http://www.w3.org/2000/svg"
   xmlns="http://www.w3.org/2000/svg"
   xmlns:sodipodi="http://sodipodi.sourceforge.net/DTD/sodipodi-0.dtd"
   xmlns:inkscape="http://www.inkscape.org/namespaces/inkscape"
   version="1.1"
   id="Layer_1"
   x="0px"
   y="0px"
   viewBox="0 0 252.3 136.6"
   style="enable-background:new 0 0 252.3 136.6;"
   xml:space="preserve"
   sodipodi:docname="corona-logo.svg"
   inkscape:version="1.0.1 (3bc2e813f5, 2020-09-07)"><metadata
   id="metadata1604"><rdf:RDF><cc:Work
       rdf:about=""><dc:format>image/svg+xml</dc:format><dc:type
         rdf:resource="http://purl.org/dc/dcmitype/StillImage" /></cc:Work></rdf:RDF></metadata><defs
   id="defs1602" /><sodipodi:namedview
   pagecolor="#ffffff"
   bordercolor="#666666"
   borderopacity="1"
   objecttolerance="10"
   gridtolerance="10"
   guidetolerance="10"
   inkscape:pageopacity="0"
   inkscape:pageshadow="2"
   inkscape:window-width="1366"
   inkscape:window-height="708"
   id="namedview1600"
   showgrid="false"
   inkscape:zoom="2.8367094"
   inkscape:cx="121.43373"
   inkscape:cy="68.187195"
   inkscape:window-x="0"
   inkscape:window-y="28"
   inkscape:window-maximized="1"
   inkscape:current-layer="Layer_1" />
<style
   type="text/css"
   id="style1587">
	.st0{fill:#FFC72C;}
	.st1{fill:#0C2340;}
</style>




<g
   id="g1611"
   style="stroke:none;fill:#e5e5e5;fill-opacity:1"><path
     class="st0"
     d="M89.2,44.7H172c0.5-3.7,2.9-10.9,9.9-17.1c0.3-0.4,0.4-1.3-0.3-1.9c-0.5-0.5-1.3-0.3-1.9,0.1  c-2,1.5-3.7,2.4-5.1,2.5c-1.3,0-2.3,0.5-3.1,1.5l-1.3,1.2c-0.5,0.4-0.8,0.7-2.5,0.8c-0.5,0-1.3,0.8-0.9,1.3c0.7,0.8,1.3,1.7,1.6,2.7  c0.5,1.7,0.1,4-1.7,5.9c-0.7,0.8-1.6,1.1-2.7,0.9c-0.7-0.1-1.2-0.4-1.2-1.1c0-0.7,0.3-1.3,0.9-1.7c1.2-1.1,1.2-2.9-0.1-3.9  c-0.8-0.6-1.9-0.7-2.8-0.3c-1.9,0.8-1.9,2.7-0.8,4.1c0.1,0.3,0,1.1-0.3,1.7c-0.5,0.8-1.5,1.3-2.4,0.9c-1.6-0.8-2.9-3.6-2.3-5.2  c0.8-1.2,1.7-2.4,2.7-3.3c-1.1-1.7-2.5-3.2-4.3-4c-1.9,0.8-3.3,2.3-4.4,4c0.9,1.1,1.9,2.1,2.1,3.3c0.4,1.5,0.1,3.2-1.1,4.7  c-0.8,0.9-2.3,1.2-3.5,0.5c-0.9-0.5-0.8-1.7-0.3-2.7c0.8-1.3,0.7-2.5-0.5-3.6c-0.9-0.7-2-0.5-2.8,0c-1.2,1.1-1.1,2.1-0.1,3.6  c0.3,0.4,0,1.1-0.1,1.5c-0.7,1.9-2.3,2-3.9,1.1c-2.9-2.7-2.7-5.6,0.7-8.4c0.8-0.7,0.4-1.9-0.9-2.1c-2.4-0.4-4.5-1.6-5.9-3.6  c-1.3-2.9-3.2-2.8-4.5,0c-0.9,2-3.6,3.2-5.7,3.6c-1.3,0.3-1.7,1.5-1.1,2c3.3,2.9,3.3,6.5,0.7,8.5c-1.3,0.8-2.9,0.7-3.9-1.1  c-0.3-0.5-0.4-1.1-0.1-1.6c0.9-1.3,1.1-2.7-0.1-3.5c-0.9-0.5-1.9-0.7-2.9,0c-1.1,0.9-1.2,2.3-0.4,3.6c0.5,0.7,0.4,1.9-0.3,2.5  c-0.8,0.8-2.3,0.5-3.5-0.4c-1.2-1.3-1.3-3.6-1.1-4.7c0.4-1.3,1.2-2.4,2-3.5c-1-1.7-2.5-3.1-4.3-4c-1.7,0.9-3.2,2.4-4.4,4  c1.1,1.1,2,2.1,2.7,3.5c0.7,1.6-0.4,4.3-2.1,5.1c-1.1,0.4-2,0-2.4-0.9c-0.3-0.5-0.4-1.2-0.3-1.6c1.2-1.5,0.7-3.2-0.8-4  c-0.9-0.4-2-0.5-2.9,0.1c-1.2,0.9-1.5,2.8-0.1,3.9c0.7,0.4,1.1,0.9,1.1,1.6c-0.1,0.9-0.7,1.1-1.3,1.2c-1.1,0.1-1.7-0.3-2.5-0.9  c-2-1.9-2.3-3.9-1.9-6c0.3-0.9,1.1-1.7,1.7-2.5c0.4-0.5-0.4-1.2-1.1-1.3c-1.7-0.4-2.1-0.5-2.4-0.8l-1.3-1.3  c-0.8-0.8-1.9-1.3-3.1-1.3c-1.3-0.1-3.2-1.1-5.1-2.5c-0.5-0.4-1.3-0.5-1.7-0.1c-0.5,0.5-0.8,1.3-0.5,1.7  C86.2,33.7,88.6,40.9,89.2,44.7z"
     id="path1589"
     style="stroke:none;fill:#e5e5e5;fill-opacity:1" /><path
     class="st0"
     d="M85.5,24.5c2.1,0.7,4.4,1.3,6.1,2.4c1.1,0.5,2.5,0.3,3.7-0.7c4.9-4,10.7-7.2,17.3-9.3c1.3-0.4,2,0.5,1.3,1.1  c-2.7,2-4.7,4.7-5.7,8.1c-0.3,0.9,0.8,1.7,2.1,1.3c1.2-0.4,2-0.3,2.8,0.1c0.9,0.5,2.1,0,2.4-1.6c0.7-4.5,3.1-7.2,7.1-9.3  c2.1-0.9,3.5,1.1,2.7,2c-1.5,1.6-2.5,3.2-2.9,5.1c-0.1,1.5,0.9,2.3,2.4,1.9c0.9-0.4,1.6-0.9,2.3-2.4c0.7-1.5,2-2.1,3.5-2.1  c1.3,0,2.8,0.8,3.3,2.1c0.5,1.5,1.2,2,2,2.4c1.6,0.4,2.8-0.4,2.7-1.9c-0.3-1.9-1.5-3.3-2.9-4.9c-0.9-1.2,0.7-3.2,2.5-2.4  c3.9,2.1,6.4,5.1,7.1,9.6c0.4,1.6,1.6,2.1,2.4,1.6c0.8-0.4,1.7-0.5,2.8-0.1c1.5,0.5,2.4-0.3,2.3-1.3c-1.2-3.5-3.1-6.1-5.7-8.1  c-0.8-0.7,0.1-1.3,1.2-1.1c6.8,2.1,12.4,5.3,17.5,9.3c1.1,0.9,2.5,1.2,3.6,0.7c1.9-1.1,3.9-1.7,6.1-2.4c1.5-0.1,2.3-1.6,1.5-2.8  c-0.9-1.5-2.7-2.7-4.5-2.7c-0.8,0.1-1.5,0.1-2-0.7c-1.3-2.1-3.6-2.9-6.7-2.4c-1.5-1.7-3.5-2.1-5.6-2c-2-2-4.1-2.3-6.4-1.9  c-2.5-1.6-4.8-2.1-6.7-1.1c-3.2-1.2-6-0.8-8.3,0.7c-0.8-1.7-1.9-2.9-3.7-3.6V6h2.9V3.1H133V0h-5.1v3.1H125V6h2.9v2.1  c-1.7,0.7-3.1,1.9-3.7,3.6c-2.4-1.5-4.9-1.9-8.1-0.7c-2-1.1-4.4-0.5-6.7,1.1c-2.4-0.4-4.5-0.1-6.4,1.9c-2.3-0.1-4.3,0.3-5.7,2  c-3.1-0.5-5.3,0.3-6.5,2.4c-0.5,0.8-1.3,0.8-2.1,0.7c-1.6,0-3.5,1.2-4.5,2.7C83.5,23.1,84,24.1,85.5,24.5L85.5,24.5z M130.6,9.7  c1.6,0,2.8,1.6,2.8,3.6c0,2-1.2,3.7-2.8,3.7c-1.6,0-2.9-1.7-2.9-3.7C127.6,11.3,129,9.7,130.6,9.7z M172,50.4H89.2v7.7H172L172,50.4  L172,50.4z M98.4,56.7c-1.3,0-2.3-1.1-2.3-2.3c0-1.2,0.9-2.3,2.3-2.3c1.2,0,2.3,1.1,2.3,2.3C100.7,55.6,99.6,56.7,98.4,56.7z   M114.3,56.7c-1.2,0-2.3-1.1-2.3-2.3c0-1.2,1.1-2.3,2.3-2.3c1.3,0,2.3,1.1,2.3,2.3C116.6,55.6,115.6,56.7,114.3,56.7z M130.6,56.7  c-1.2,0-2.3-1.1-2.3-2.3c0-1.2,1.1-2.3,2.3-2.3s2.3,1.1,2.3,2.3C132.8,55.6,131.8,56.7,130.6,56.7z M146.8,56.7  c-1.2,0-2.3-1.1-2.3-2.3c0-1.2,1.1-2.3,2.3-2.3s2.3,1.1,2.3,2.3C149.1,55.6,148,56.7,146.8,56.7z M162.7,56.7  c-1.3,0-2.3-1.1-2.3-2.3c0-1.2,0.9-2.3,2.3-2.3c1.2,0,2.3,1.1,2.3,2.3C165,55.6,163.9,56.7,162.7,56.7z M89.2,46.5H172v2.1H89.2  V46.5z"
     id="path1591"
     style="stroke:none;fill:#e5e5e5;fill-opacity:1" /><path
     class="st1"
     d="M65.1,108.4l-0.8,1.3c9.6,1.1,15.1,4.9,17.3,6.9c0.8,0.8,1.2,1.3,1.2,1.3c6-6.7,15.9-8,15.9-8  c-1.6-0.8-2.1-3.1-2.1-3.5V82.2c0-1.3,1.9-2.8,1.9-2.8c-5.9-0.7-14.9-4.5-16.8-5.5l-0.4-0.1c-5.9,5.1-15.3,5.6-15.3,5.6  c-0.1,1.1,1.5,3.1,1.5,3.1V106C67.4,106,66.8,106.3,65.1,108.4z M77.4,80.7c0-0.3,2.1,0.5,4.3,1.3c1.4,0.6,2.8,1.2,4.3,1.7v24.7  c-1.7-0.4-3.2-0.8-4.3-1.1c-3.5-1.1-4.3-2-4.3-2S77.4,80.7,77.4,80.7z M132.4,108.4c-0.4,0.7-0.8,1.3-0.8,1.3  c9.6,1.1,15.1,4.9,17.3,6.9c0.8,0.8,1.2,1.3,1.2,1.3c5.9-6.7,15.9-8,15.9-8c-1.6-0.8-2.1-3.1-2.1-3.5V82.2c0-1.3,1.9-2.8,1.9-2.8  c-5.9-0.7-14.9-4.5-16.8-5.5l-0.4-0.1c-5.9,5.1-15.3,5.6-15.3,5.6c-0.1,1.1,1.5,3.1,1.5,3.1V106C134.7,106,134.2,106.3,132.4,108.4  L132.4,108.4z M144.7,80.7c0-0.3,2.1,0.5,4.3,1.3c1.4,0.6,2.8,1.2,4.3,1.7v24.7c-1.7-0.4-3.2-0.8-4.3-1.1c-3.5-1.1-4.3-2-4.3-2  S144.7,80.7,144.7,80.7z M241.3,109.2c-2.7-0.4-3.6-2.7-3.6-3.5V79c-6.3-2-12.5-4.3-14.5-4.9l-0.7-0.3c-7.1,4.3-14.8,5.6-14.8,5.6  c-0.1,1.1,1.5,3.1,1.5,3.1v24.8c0,0-0.3,0.4-0.9,1.3c-0.3,0.4-0.8,0.9-0.9,1.2c6.9,0.8,14.5,7.1,15.9,8.1c0.1,0,0.3,0.1,0.3,0.1  l6.1-6.7l6.9,6.7l8.1-8.3C244.6,109.8,243.9,109.6,241.3,109.2L241.3,109.2z M227,108.4c-1.2-0.9-2.5-1.7-3.9-2.4  c-2.1-1.2-3.9-1.9-3.9-1.9V80.7c0.3,0.3,2,0.9,3.9,1.6c2,0.8,3.9,1.5,3.9,1.5V108.4z M118.2,81.9c8.9,4.9,12.3,0.9,13.1-2.3  c-3.5-0.8-7.9-5.9-7.9-5.9l-1.2,0.9c-7.3,4.8-6.3,3.9-6.3,3.9c-0.9-1.3-6.7-4.8-6.7-4.8l-8.9,5.6c3.2,0.3,4.5,3.2,4.5,4.7v25.7h-3.2  c6.9,4,8.8,8.3,8.8,8.3s1.9-4.3,8.8-8.3H116V82.8C116,81.4,118.2,81.9,118.2,81.9L118.2,81.9z M202.2,82.7c0,0,1.7-3.1,0.9-3.3  c-3.6-1.5-10.3-5.6-10.3-5.6l-1.2,0.9c-7.3,4.8-8.9,4.1-8.9,4.1c-0.9-1.5-6.7-4.8-6.7-4.8l-8.7,5.3c3.2,0.3,4.5,3.2,4.5,4.7v25.7  h-3.2c6.9,4,8.8,8.3,8.8,8.3s1.9-4.3,8.9-8.3h-3.3v-26l4.7-2.7l3.6,2.7v26h-3.2c6.9,4,8.4,8.3,8.4,8.3s1.9-4.3,8.8-8.3h-3.2  L202.2,82.7L202.2,82.7z"
     id="path1593"
     style="stroke:none;fill:#e5e5e5;fill-opacity:1" /><path
     class="st1"
     d="M66.8,115.4c-2.1,1.1-3.5,1.7-5.9,2.4v-50c9.5,1.6,14.8-3.7,14.8-3.7c-7.9,0-15.5-9.6-15.5-9.6  c-4.9,4.5-9.6,7.6-13.6,9.7c-8.7,4.7-14.4,4.8-14.4,4.8c3.1,1.5,2.7,5.2,2.7,5.2V110l-4,3.5c-7.9-5.2-13.1-13.5-13.7-22.9  C16.4,76,27.5,60.4,42.8,55.9C21.7,56,1.2,70.7,0,91.6v4.5c1.3,19.1,15.7,31.6,36.8,31.6c3.3,0,6.7-0.4,9.9-1.1  c3.9-0.9,7.7-2.3,11.2-4v5.5c-0.5-0.1-1.2-0.3-1.7-0.3c-2.7,0-4.8,2-4.8,4.4s2.1,4.3,4.8,4.3s4.8-1.9,4.8-4.3V121  c2.4-1.6,3.9-3.1,5.9-5.1c0.5-0.3,0.7-0.7,1.1-1.1L66.8,115.4L66.8,115.4z M57.9,118.6c-1.7,0.3-3.5,0.5-5.3,0.5  c-2,0.1-3.9,0.1-5.9,0c-4-0.4-7.9-1.5-11.2-3.1l11.2-9.9l2.8-2.5V64.9l1.5-0.9c2.5,1.5,4.8,2.4,6.9,3.1L57.9,118.6L57.9,118.6z   M246.9,119.5h0.9c0,0,0.8,0.9,1.3,1.9h1.1c0,0-0.7-1.4-1.4-2c0,0,1.1-0.3,1.1-1.3c0-0.7-0.5-1.3-1.7-1.3h-2v4.6h0.8V119.5z   M246.9,117.5h1.1c0.4,0,0.9,0.1,0.9,0.6s-0.5,0.7-0.9,0.7c-0.4,0-1.1,0-1.1,0V117.5L246.9,117.5z"
     id="path1595"
     style="stroke:none;fill:#e5e5e5;fill-opacity:1" /><path
     class="st1"
     d="M243.7,119.1c0,2.4,1.9,4.3,4.3,4.3s4.3-1.9,4.3-4.3c0,0,0,0,0,0c0-2.4-1.9-4.3-4.3-4.3  C245.6,114.8,243.7,116.7,243.7,119.1z M248,115.6c1.9,0,3.5,1.6,3.5,3.5c0,1.9-1.7,3.5-3.6,3.4c-1.9,0-3.4-1.6-3.4-3.4  C244.5,117.1,246.1,115.6,248,115.6z"
     id="path1597"
     style="stroke:none;fill:#e5e5e5;fill-opacity:1" /></g>
</svg>
